<?xml version="1.0" encoding="utf-8"?>
<!-- Generator: Adobe Illustrator 23.1.1, SVG Export Plug-In . SVG Version: 6.00 Build 0)  -->
<svg version="1.1" id="Capa_1" xmlns="http://www.w3.org/2000/svg" xmlns:xlink="http://www.w3.org/1999/xlink" x="0px" y="0px"
	 viewBox="0 0 64 64" style="enable-background:new 0 0 64 64;" xml:space="preserve">
<style type="text/css">
	.st0{fill-rule:evenodd;clip-rule:evenodd;fill:#393939;}
</style>
<g>
	<path class="st0" d="M8.8,20.7c-2.2,0-3.9,1.8-3.9,3.9v16.5c0,2.2,1.8,4,4,4c2.2,0,4-1.8,3.9-4V24.6C12.8,22.5,11,20.7,8.8,20.7
		L8.8,20.7z M40.7,5.8l2.8-5c0.1-0.3,0.1-0.6-0.2-0.7c-0.3-0.1-0.6,0-0.7,0.2l-2.8,5.1c-2.3-1-5-1.6-7.7-1.6c-2.8,0-5.4,0.6-7.7,1.6
		l-2.8-5.1c-0.1-0.3-0.5-0.4-0.7-0.2c-0.3,0.1-0.4,0.5-0.2,0.7l2.8,5c-5.7,2.8-9.3,8.2-9.3,14.3h35.6C49.8,14,46.1,8.6,40.7,5.8
		L40.7,5.8z M23.9,13.6c-0.8,0-1.5-0.7-1.5-1.5c0-0.8,0.7-1.5,1.5-1.5c0.8,0,1.5,0.7,1.5,1.5C25.4,13,24.7,13.6,23.9,13.6L23.9,13.6
		z M40.1,13.6c-0.8,0-1.5-0.7-1.5-1.5c0-0.8,0.7-1.5,1.5-1.5c0.8,0,1.5,0.7,1.5,1.5C41.6,13,40.9,13.6,40.1,13.6L40.1,13.6z
		 M14.3,21.4V47c0,2.3,1.9,4.2,4.2,4.2h2.9V60c0,2.2,1.8,4,3.9,4c2.2,0,4-1.8,4-4v-8.8h5.3V60c0,2.2,1.8,4,3.9,3.9c2.2,0,4-1.8,4-4
		v-8.7h2.9c2.3,0,4.2-1.9,4.2-4.2V21.4H14.3L14.3,21.4z M59.1,24.6c0-2.2-1.8-3.9-3.9-3.9c-2.2,0-3.9,1.8-3.9,4v16.5
		c0,2.2,1.8,3.9,3.9,3.9c2.2,0,3.9-1.8,3.9-4V24.6L59.1,24.6z"/>
</g>
</svg>
