<?xml version="1.0" encoding="utf-8"?>
<!-- Generator: Adobe Illustrator 23.1.1, SVG Export Plug-In . SVG Version: 6.00 Build 0)  -->
<svg version="1.1" id="Capa_1" xmlns="http://www.w3.org/2000/svg" xmlns:xlink="http://www.w3.org/1999/xlink" x="0px" y="0px"
	 viewBox="0 0 64 64" style="enable-background:new 0 0 64 64;" xml:space="preserve">
<style type="text/css">
	.st0{fill-rule:evenodd;clip-rule:evenodd;fill:#393939;}
</style>
<g>
	<path class="st0" d="M49.52,34c-0.07-8.1,6.63-11.99,6.93-12.18c-3.81-5.59-9.69-6.21-11.76-6.36c-5.28-0.39-9.77,2.94-12.27,2.94
		c-2.54,0-6.45-2.86-10.6-2.79c-5.45,0.08-10.47,3.16-13.28,8.03c-5.66,9.79-1.45,24.3,4.07,32.25c2.7,3.89,5.91,8.26,10.13,8.1
		c4.07-0.16,5.6-2.62,10.52-2.62c4.91,0,6.3,2.62,10.6,2.55c4.37-0.07,7.15-3.96,9.82-7.87c3.1-4.5,4.37-8.87,4.45-9.1
		C58.04,46.91,49.61,43.68,49.52,34L49.52,34L49.52,34z M41.44,10.21c2.25-2.7,3.75-6.47,3.34-10.21c-3.23,0.13-7.13,2.14-9.45,4.84
		c-2.08,2.4-3.9,6.23-3.4,9.9C35.52,15.02,39.19,12.92,41.44,10.21L41.44,10.21z"/>
</g>
</svg>
